<?xml version="1.0" standalone="no"?>
<!DOCTYPE svg PUBLIC "-//W3C//DTD SVG 1.1//EN" "http://www.w3.org/Graphics/SVG/1.1/DTD/svg11.dtd">
<svg xmlns="http://www.w3.org/2000/svg">
<metadata>Generated by Fontastic.me</metadata>
<defs>
<font id="barlow-robbins" horiz-adv-x="512">
<font-face font-family="barlow-robbins" units-per-em="512" ascent="480" descent="-32"/>
<missing-glyph horiz-adv-x="512" />

<glyph unicode="&#57344;" d="M136 333l0-283l-94 0l0 283z m6 88c0-14-4-26-14-35c-10-9-23-14-39-14l0 0c-16 0-29 5-38 14c-10 9-14 21-14 35c0 14 4 26 14 35c10 9 23 14 39 14c16 0 28-5 38-14c9-9 14-21 14-35z m333-208l0-163l-94 0l0 152c0 20-3 35-11 47c-8 11-20 17-36 17c-12 0-22-4-30-10c-9-7-15-15-19-25c-2-5-3-13-3-23l0-158l-94 0c1 76 1 138 1 185c0 47 0 76 0 85l-1 13l94 0l0-41l0 0c4 6 7 12 11 16c4 5 10 10 17 15c6 5 15 10 24 13c10 3 21 4 33 4c33 0 59-11 79-32c20-22 29-54 29-95z"/>
<glyph unicode="&#57345;" d="M457 158c0-5-1-12-3-20c-2-9-4-15-6-20c-4-10-15-20-35-30c-17-10-35-15-53-15c-5 0-10 0-15 1c-5 1-10 2-16 4c-6 1-11 3-14 4c-3 1-8 3-16 6c-7 3-12 4-14 5c-18 7-35 14-50 24c-24 15-49 35-75 61c-26 26-47 51-62 76c-9 14-17 31-23 50c-1 1-3 6-6 14c-2 7-4 13-5 16c-1 3-3 7-5 13c-1 6-2 12-3 17c-1 4-1 9-1 15c0 17 5 35 14 53c11 19 21 31 31 35c4 2 11 4 19 6c9 1 15 2 20 2c3 0 5 0 6 0c4-2 9-9 16-22c2-4 5-9 8-16c4-6 7-12 10-18c3-5 6-10 9-15c1-1 2-3 5-7c3-4 5-8 6-10c1-3 2-6 2-8c0-4-3-9-8-15c-5-5-11-11-18-15c-6-5-12-10-17-16c-6-5-9-9-9-13c0-1 1-4 2-6c1-3 2-5 2-6c1-1 2-4 4-7c2-3 3-5 4-5c14-26 31-49 49-67c19-19 41-36 67-50c1 0 3-1 6-3c3-2 5-4 7-4c1-1 3-2 6-3c2-1 4-1 6-1c3 0 8 2 13 8c5 5 11 11 15 18c5 6 10 12 16 17c6 6 10 8 14 8c3 0 6 0 8-2c3-1 7-3 11-6c4-2 6-4 7-5c4-3 10-6 15-9c5-3 11-6 18-10c7-3 12-6 16-8c13-7 20-12 21-15c1-2 1-4 1-6z"/>
<glyph unicode="&#57346;" d="M434 274c26 2 44 13 50 29c-9-5-38-12-54-6c-1 4-2 8-2 11c-13 45-54 81-98 76c3 2 7 3 11 4c4 2 33 7 28 17c-4 8-38-7-45-9c9 3 23 9 25 19c-13-2-26-8-36-17c3 4 6 8 7 13c-35-22-56-67-73-111c-13 13-24 23-34 28c-29 16-64 32-119 52c-1-18 9-42 40-58c-7 1-19-1-29-3c4-21 17-38 52-46c-16-1-24-5-32-13c8-14 25-31 57-27c-35-16-14-44 15-40c-50-50-127-47-171-4c116-158 368-94 405 59c29-1 45 9 55 20c-16-2-39 0-52 6z"/>
<glyph unicode="&#57347;" d="M512 309l0-227c0-12-4-23-13-32c-9-9-20-13-33-13l-420 0c-13 0-24 4-33 13c-9 9-13 20-13 32l0 227c8-9 18-17 29-25c69-47 116-79 142-98c11-8 20-15 26-19c7-4 16-9 27-14c12-4 22-7 32-7l0 0c10 0 20 3 32 7c11 5 20 10 27 14c6 4 15 11 26 19c33 23 80 56 142 98c11 8 21 16 29 25z m0 84c0-15-5-29-14-43c-9-14-21-25-35-35c-71-50-116-81-134-93c-1-1-6-4-12-9c-6-4-11-8-15-11c-4-2-9-5-15-9c-6-3-11-6-16-8c-6-1-10-2-15-2l0 0c-5 0-9 1-15 2c-5 2-10 5-16 8c-6 4-11 7-15 9c-4 3-9 7-15 11c-6 5-11 8-12 9c-18 12-43 30-75 52c-33 23-52 36-59 41c-12 8-23 19-33 33c-11 14-16 27-16 39c0 15 4 27 12 37c8 10 19 15 34 15l420 0c13 0 23-5 32-14c9-9 14-19 14-32z"/>
<glyph unicode="&#8592;" d="M475 256l0-37c0-10-3-18-9-25c-6-8-14-11-24-11l-201 0l84-84c7-7 10-16 10-26c0-10-3-19-10-26l-22-21c-7-7-15-11-26-11c-9 0-18 4-26 11l-186 186c-7 7-10 16-10 26c0 10 3 18 10 26l186 185c8 8 16 11 26 11c10 0 19-3 26-11l22-21c7-7 10-16 10-26c0-10-3-18-10-26l-84-83l201 0c10 0 18-4 24-11c6-7 9-16 9-26z"/>
<glyph unicode="&#8595;" d="M479 274c0-10-4-18-11-25l-186-187c-7-7-16-10-26-10c-10 0-19 3-26 10l-186 187c-7 6-11 15-11 25c0 10 4 19 11 26l21 22c8 7 17 10 26 10c11 0 19-3 26-10l84-84l0 201c0 10 4 18 11 26c7 7 16 10 26 10l36 0c10 0 19-3 26-10c7-8 11-16 11-26l0-201l84 84c7 7 15 10 26 10c9 0 18-3 26-10l21-22c7-7 11-16 11-26z"/>
<glyph unicode="&#8593;" d="M479 235c0-10-4-19-11-26l-21-22c-8-7-16-10-26-10c-11 0-19 3-26 10l-84 84l0-201c0-10-4-18-11-24c-7-6-16-9-26-9l-36 0c-10 0-19 3-26 9c-7 6-11 14-11 24l0 201l-84-84c-7-7-15-10-26-10c-10 0-18 3-25 10l-22 22c-7 7-11 16-11 26c0 10 4 18 11 26l186 186c7 7 16 10 26 10c10 0 19-3 26-10l186-186c7-8 11-17 11-26z"/>
<glyph unicode="&#8594;" d="M457 238c0-11-3-19-10-26l-186-186c-8-7-17-11-26-11c-10 0-19 4-26 11l-22 21c-7 7-10 16-10 26c0 10 3 19 10 26l84 84l-201 0c-10 0-18 3-24 11c-6 7-9 15-9 25l0 37c0 10 3 19 9 26c6 7 14 11 24 11l201 0l-84 84c-7 6-10 15-10 25c0 11 3 19 10 26l22 21c7 8 16 11 26 11c10 0 18-3 26-11l186-186c7-6 10-15 10-25z"/>
<glyph unicode="&#57348;" d="M411 303c7 6 7 16 0 22l-23 22c-6 6-16 6-23 0l-108-106l-110 106c-7 6-17 6-23 0l-23-21c-7-6-7-16 0-22l144-140c6-6 17-6 23 0z"/>
<glyph unicode="&#57349;" d="M209 411c-6 7-16 7-22 0l-22-23c-6-6-6-16 0-23l106-109l-106-109c-6-7-6-17 0-23l21-23c6-7 16-7 22 0l140 144c6 6 6 17 0 23z"/>
<glyph unicode="&#57350;" d="M480 315l0 14c19 11 32 31 32 55c0 35-29 64-64 64c-35 0-64-29-64-64c0-24 13-44 32-55l0-14c-32-10-56-35-62-65c-17 17-40 29-66 34l0 11c28 12 48 40 48 73c0 44-36 80-80 80c-44 0-80-36-80-80c0-33 20-61 48-73l0-11c-26-5-49-17-66-34c-6 30-30 55-62 65l0 14c19 11 32 31 32 55c0 35-29 64-64 64c-35 0-64-29-64-64c0-24 13-44 32-55l0-14c-37-12-64-43-64-80l0-75c0-18 14-32 32-32l128 0l0-32c0-18 14-32 32-32l192 0c18 0 32 14 32 32l0 32l128 0c18 0 32 14 32 32l0 75c0 37-27 68-64 80z"/>
<glyph unicode="&#57351;" d="M480 512l-352 0c-18 0-32-16-32-34l0-30l320 0c18 0 32-16 32-34l0-190l32 0c18 0 32 13 32 30l0 224c0 18-14 34-32 34z m-96-96l-352 0c-18 0-32-16-32-34l0-256c0-18 14-30 32-30l119 0l172-89c16-8 29-5 29 13l0 76l32 0c18 0 32 12 32 30l0 256c0 18-14 34-32 34z"/>
<glyph unicode="&#57352;" d="M480 512c-16 0-146-2-224-55c-78 53-208 55-224 55c-21 0-32-14-32-32l0-384c0-18 15-32 32-32c38 0 142-9 192-46c3-3 6-6 9-9c0 0 5-5 12-11c6-6 16-6 22 0l12 11c3 3 6 6 9 9c50 37 161 46 200 46c19 0 24 14 24 32l0 384c0 18-10 32-32 32z m-400-98c27-4 82-12 129-25c8-2 15-11 15-20l0-36c0-8-7-13-15-10c-48 15-102 24-129 27c-9 2-16 9-16 18l0 32c0 9 7 15 16 14z m129-187c-48 15-102 24-129 27c-9 2-16 9-16 18l0 32c0 9 7 15 16 14c27-4 82-12 129-25c8-2 15-11 15-20l0-36c0-8-7-13-15-10z m94 162c46 13 102 22 129 25c9 1 16-5 16-14l0-32c0-9-7-17-16-18c-27-4-83-12-129-27c-8-3-15 2-15 10l0 36c0 9 7 18 15 20z m129-135c-27-4-83-12-129-27c-8-3-15 2-15 10l0 36c0 9 7 18 15 20c46 13 102 22 129 25c9 1 16-5 16-14l0-32c0-9-7-17-16-18z m-223-123c-48 15-102 24-129 27c-9 2-16 9-16 18l0 32c0 9 7 15 16 14c27-4 82-12 129-25c8-2 15-11 15-20l0-36c0-8-7-13-15-10z m79 10l0 36c0 9 7 18 15 20c46 13 102 22 129 25c9 1 16-5 16-14l0-32c0-9-7-17-16-18c-27-4-83-12-129-27c-8-3-15 2-15 10z"/>
<glyph unicode="&#57353;" d="M512 160c0 4-1 8-2 12c-1 1-1 2-2 3c-1 2-3 4-4 6c-1 1-2 2-4 3c0 1-1 2-2 3l-96 64c-5 3-12 5-18 5l-256 0c-6 0-13-2-18-5l-96-64c-1-1-2-2-3-3c-1-1-2-2-3-3c-1-2-3-4-4-6c-1-1-1-2-2-3c-1-4-2-8-2-12c0 0 0 0 0 0l0-128c0-18 14-32 32-32l448 0c18 0 32 14 32 32l0 128c0 0 0 0 0 0z m-64-96l-384 0l0 64l384 0z m-202 262c5-8 15-8 20 0l83 106c6 8 3 16-7 16l-54 0l0 80c0 9-7 16-16 16l-32 0c-9 0-16-7-16-16l0-80l-54 0c-10 0-13-8-7-16z"/>
<glyph unicode="&#57354;" d="M30 384c0-43 15-74 46-93c25-15 54-17 69-17c3 0 6 4 8 4c0 0-4-22 19-54l-1 0c-40 0-171-12-171-112c0-103 120-112 144-112c2 0 3 0 3 0c0 0 2 0 5 0c15 0 55 2 92 19c49 22 73 60 73 113c0 51-37 82-64 104c-17 14-31 25-31 37c0 11 10 20 23 31c22 18 42 44 42 92c0 42-6 71-42 89c4 2 19 3 25 4c20 2 50 5 50 20l0 3l-146 0c-1 0-144-5-144-128z m230-262c3-41-34-71-91-75c-57-4-104 20-106 61c-2 20 8 39 26 54c18 16 43 25 70 27c4 1 7 1 10 1c53 0 89-29 91-68z m-37 290c14-46-7-94-41-103c-4-1-8-2-12-2c-31 0-61 30-73 70c-6 23-6 42 2 62c7 18 20 31 36 35c4 1 8 2 12 2c37 0 61-15 76-64z m225-92l0 64l-64 0l0-64l-64 0l0-64l64 0l0-64l64 0l0 64l64 0l0 64z"/>
<glyph unicode="&#57355;" d="M32 32l0 96l240 240l96-96l-240-240z m288 384l50 50c19 19 49 19 68 0l28-28c19-19 19-49 0-68l-50-50z"/>
<glyph unicode="&#57356;" d="M382 176l-80 79l80 79c6 6 6 16 0 23l-23 22c-6 7-16 7-23 0l-79-79l-79 79c-6 7-16 7-23 0l-22-22c-7-7-7-17 0-23l79-79l-79-79c-7-7-7-17 0-23l22-23c7-6 17-6 23 0l79 80l79-80c7-6 17-6 23 0l23 23c6 6 6 16 0 23z"/>
<glyph unicode="&#57357;" d="M0 480l0-160c0-18 14-32 32-32l160 0c18 0 32 14 32 32l0 160c0 18-14 32-32 32l-160 0c-18 0-32-14-32-32z m32-256c-18 0-32-14-32-32l0-160c0-18 14-32 32-32l160 0c18 0 32 14 32 32l0 160c0 18-14 32-32 32z m288 0c-18 0-32-14-32-32l0-160c0-18 14-32 32-32l160 0c18 0 32 14 32 32l0 160c0 18-14 32-32 32z m0 288c-18 0-32-14-32-32l0-160c0-18 14-32 32-32l160 0c18 0 32 14 32 32l0 160c0 18-14 32-32 32z"/>
<glyph unicode="&#57358;" d="M495 278l-224 226c-5 5-7 8-10 8c-6 0-5-9-5-23l0-74l-99-94l-105-9c-22-5-30-21-14-37l83-83l-30-31l-89-145c-4-8-1-11 7-8l146 89l30 31l83-82c6-6 12-9 18-9c8 0 15 7 18 20l11 104l93 95l75 0c22 0 28 6 12 22z"/>
<glyph unicode="&#57359;" d="M142 352l228 0c13 0 18-16 11-25l-113-159c-7-9-17-11-24-2l-113 162c-7 9-2 24 11 24z"/>
<glyph unicode="&#57360;" d="M480 512l-384 0c-18 0-32-14-32-32l-32 0c-18 0-32-14-32-32c0-18 14-32 32-32l32 0l0-32l-32 0c-18 0-32-14-32-32c0-18 14-32 32-32l32 0l0-32l-32 0c-18 0-32-14-32-32c0-18 14-32 32-32l32 0l0-32l-32 0c-18 0-32-14-32-32c0-18 14-32 32-32l32 0l0-32l-32 0c-18 0-32-14-32-32c0-18 14-32 32-32l32 0c0-18 14-32 32-32l384 0c18 0 32 14 32 32l0 448c0 18-14 32-32 32z m-80-192l-224 0c-9 0-16 7-16 16l0 32c0 9 7 16 16 16l224 0c9 0 16-7 16-16l0-32c0-9-7-16-16-16z m0-96l-224 0c-9 0-16 7-16 16l0 32c0 9 7 16 16 16l224 0c9 0 16-7 16-16l0-32c0-9-7-16-16-16z m0-96l-224 0c-9 0-16 7-16 16l0 32c0 9 7 16 16 16l224 0c9 0 16-7 16-16l0-32c0-9-7-16-16-16z"/>
<glyph unicode="&#57361;" d="M512 199l0 113l-58 0c0 0-6 29-18 43l43 43l-80 80l-44-43c0 0-17 12-43 17l0 60l-114 0l0-60c0 0-32-12-39-18l-41 41l-80-79l41-42c0 0-14-28-17-41l-62 0l0-115l62 0c0 0 6-19 17-40l-42-41l80-80l41 40c0 0 19-11 40-17l0-60l115 0l0 59c0 0 32 8 43 17l43-43l81 80l-44 43c0 0 15 23 18 43z m-257-68c-69 0-125 56-125 125c0 69 56 125 125 125c69 0 126-56 126-125c0-69-57-125-126-125z"/>
<glyph unicode="&#57362;" d="M303 101c6-7 16-7 22 0l22 23c6 6 6 16 0 23l-106 109l106 109c6 7 6 17 0 23l-21 23c-6 7-16 7-22 0l-140-144c-6-6-6-17 0-23z"/>
<glyph unicode="&#57363;" d="M258 512c-107 0-194-87-194-194c0-138 140-275 182-313c7-7 18-7 24 0c43 38 183 175 183 313c0 107-87 194-195 194z m0-288c-53 0-96 43-96 96c0 53 43 96 96 96c53 0 96-43 96-96c0-53-43-96-96-96z"/>
<glyph unicode="&#57364;" d="M503 55l-100 99c0 0 0 0 0 0c28 37 45 84 45 134c0 123-101 224-224 224c-123 0-224-101-224-224c0-123 101-224 224-224c50 0 97 17 134 45c0 0 0 0 0 0l99-100c7-6 15-9 23-9c8 0 16 3 23 9c12 13 12 33 0 46z m-279 73c-88 0-160 72-160 160c0 88 72 160 160 160c88 0 160-72 160-160c0-88-72-160-160-160z"/>
<glyph unicode="&#57365;" d="M448 512l-384 0c-18 0-32-14-32-32l0-448c0-18 14-32 32-32l384 0c18 0 32 14 32 32l0 448c0 18-14 32-32 32z m-32-448l-320 0l0 384l320 0z m-240 256l160 0c9 0 16 7 16 16l0 32c0 9-7 16-16 16l-160 0c-9 0-16-7-16-16l0-32c0-9 7-16 16-16z m0-96l160 0c9 0 16 7 16 16l0 32c0 9-7 16-16 16l-160 0c-9 0-16-7-16-16l0-32c0-9 7-16 16-16z m0-96l160 0c9 0 16 7 16 16l0 32c0 9-7 16-16 16l-160 0c-9 0-16-7-16-16l0-32c0-9 7-16 16-16z"/>
<glyph unicode="&#57366;" d="M101 209c-7-6-7-16 0-22l23-22c6-6 16-6 23 0l109 106l109-106c7-7 17-7 23 0l23 21c7 6 7 16 0 22l-144 140c-6 6-17 6-23 0z"/>
</font>
</defs>
</svg>
